<svg width="217" height="35" viewBox="0 0 217 35" fill="none" xmlns="http://www.w3.org/2000/svg">
<g clip-path="url(#clip0)">
<path d="M0 3.13562V0.867188H10.0609V3.13562H6.26312V13.0479H3.79775V3.13562H0Z" fill="#4F5578"/>
<path d="M11.1431 13.0483V3.44446H13.4439L13.6084 5.10241C14.2762 3.81718 15.444 3.17456 17.0897 3.17456C17.1955 3.17151 17.3015 3.17796 17.4062 3.19384V5.85748C17.0492 5.78156 16.6854 5.74387 16.3207 5.74502C15.1434 5.74502 14.1623 6.19806 13.7635 7.20376V13.0515L11.1431 13.0483Z" fill="#4F5578"/>
<path d="M19.1659 7.46396C20.019 6.92666 21.0112 6.6614 22.0142 6.70247C22.7929 6.67637 23.5694 6.80067 24.3024 7.06876V6.72174C24.3024 5.75782 23.6694 5.26301 22.3814 5.26301C21.2013 5.233 20.0305 5.48042 18.9602 5.98595V3.68218C20.1888 3.29131 21.4706 3.10045 22.758 3.11668C25.4565 3.11668 26.8057 4.42761 26.8057 7.04948V13.0483H24.9069L24.6853 11.7181C24.2998 12.2455 23.7847 12.661 23.1915 12.923C22.508 13.1719 21.7843 13.2874 21.0585 13.2636C20.6355 13.2847 20.213 13.2113 19.8209 13.0486C19.4289 12.886 19.0767 12.638 18.7893 12.3221C18.2275 11.7143 17.9239 10.9063 17.9443 10.073C17.9412 8.90342 18.3969 7.99091 19.1659 7.46396ZM22.0142 11.3197C22.4734 11.3147 22.9238 11.1912 23.323 10.9607C23.7222 10.7302 24.0571 10.4004 24.2961 10.0023V8.90985C23.7737 8.60042 23.1756 8.44778 22.5712 8.46966C21.2041 8.46323 20.5711 8.96126 20.5711 10.0151C20.5711 10.7702 21.1218 11.3132 22.0206 11.3132L22.0142 11.3197Z" fill="#4F5578"/>
<path d="M29.3442 13.0483V3.44439H31.664V5.02522C32.2463 3.74 33.3604 3.11666 35.0124 3.11666C35.4568 3.09356 35.9012 3.16255 36.3185 3.31943C36.7358 3.4763 37.1173 3.71779 37.4398 4.02917C38.0442 4.63966 38.3481 5.52646 38.3481 6.66389V13.0483H35.7245V7.16192C35.7245 5.74174 35.1136 5.26299 34.0376 5.26299C33.6036 5.28266 33.1827 5.4196 32.8183 5.65966C32.4539 5.89972 32.1592 6.2342 31.9647 6.62855V13.0547L29.3442 13.0483Z" fill="#4F5578"/>
<path d="M44.5411 3.11668C45.6897 3.0936 46.8273 3.34684 47.861 3.85569V5.99238C47.3839 5.77854 46.8819 5.62738 46.3672 5.54255C45.7266 5.40788 45.0749 5.33473 44.4208 5.32406C44.0929 5.30068 43.7636 5.3388 43.4492 5.43652C43.3029 5.48837 43.1786 5.58985 43.0973 5.72388C43.016 5.8579 42.9827 6.01628 43.003 6.17231C43.003 6.54824 43.2056 6.81493 43.6518 6.98201C44.1346 7.1711 44.6351 7.30997 45.1456 7.3965L45.2943 7.4222L46.0539 7.59249C46.2469 7.64069 46.4811 7.70495 46.7311 7.7917C47.1384 7.90955 47.5146 8.1181 47.8325 8.40219C48.2977 8.80703 48.5477 9.40145 48.5477 10.2754C48.5574 10.7213 48.4543 11.1622 48.2482 11.556C48.042 11.9498 47.7398 12.2833 47.3704 12.5246C46.4614 13.125 45.3905 13.4227 44.3069 13.376C42.996 13.3967 41.7013 13.0794 40.544 12.4539V10.2818C41.1434 10.5567 41.7677 10.7719 42.408 10.9244C43.0836 11.1083 43.7785 11.2086 44.4778 11.2233C45.3196 11.2233 45.9051 10.902 45.9051 10.3204C45.9051 8.73956 40.3794 10.2465 40.3794 6.31048C40.3794 4.26375 41.87 3.11668 44.5411 3.11668Z" fill="#4F5578"/>
<path d="M50.3833 16.708V3.44443H52.6461L52.7569 4.95136C53.4531 3.72718 54.526 3.1167 56.0166 3.1167C57.5072 3.1167 58.6592 3.66292 59.3745 4.5658C60.113 5.57222 60.4914 6.8042 60.4473 8.0584C60.4686 9.39703 60.0437 10.7037 59.2415 11.7663C58.819 12.2842 58.2861 12.698 57.683 12.9763C57.0799 13.2546 56.4225 13.3902 55.7603 13.3728C55.2458 13.3912 54.7337 13.2936 54.2609 13.0869C53.7881 12.8802 53.3663 12.5697 53.0259 12.1776V16.708H50.3833ZM52.9879 10.3076C53.6711 10.8604 54.5263 11.1476 55.3995 11.1172C57.0673 11.0883 57.7541 9.74206 57.7541 8.11303C57.7541 6.42938 56.9661 5.33693 55.3995 5.33693C54.944 5.34151 54.4924 5.42407 54.064 5.58113C53.6671 5.72137 53.3015 5.93975 52.9879 6.22374V10.3076Z" fill="#4F5578"/>
<path d="M63.0963 7.46428C63.9494 6.92698 64.9416 6.66172 65.9446 6.70278C66.7233 6.67669 67.4998 6.80099 68.2328 7.06907V6.72206C68.2328 5.75814 67.5998 5.26333 66.3118 5.26333C65.1317 5.23331 63.9609 5.48074 62.8906 5.98627V3.68249C64.1141 3.2932 65.3905 3.10235 66.6725 3.11699C69.3816 3.11699 70.7361 4.42793 70.7361 7.04979V13.0486H68.8531L68.6126 11.7184C68.2271 12.2458 67.712 12.6613 67.1188 12.9233C66.4352 13.1722 65.7115 13.2877 64.9857 13.2639C64.5622 13.285 64.1393 13.2117 63.7467 13.049C63.3541 12.8864 63.0014 12.6384 62.7134 12.3224C62.1536 11.7135 61.8513 10.906 61.8716 10.0733C61.8716 8.90374 62.3241 7.99122 63.0963 7.46428ZM65.9446 11.32C66.4038 11.315 66.8542 11.1915 67.2534 10.961C67.6526 10.7305 67.9875 10.4007 68.2265 10.0026V8.91016C67.7039 8.60122 67.106 8.44862 66.5016 8.46997C65.1281 8.46997 64.4793 8.968 64.4793 10.0219C64.4857 10.7705 65.0522 11.3135 65.951 11.3135L65.9446 11.32Z" fill="#4F5578"/>
<path d="M73.2744 13.0483V3.44446H75.5752L75.7429 5.10241C76.4107 3.81718 77.5785 3.17456 79.2242 3.17456C79.3301 3.17151 79.436 3.17796 79.5407 3.19384V5.85748C79.1837 5.78172 78.8199 5.74403 78.4552 5.74502C77.2779 5.74502 76.2936 6.19806 75.8949 7.20376V13.0515L73.2744 13.0483Z" fill="#4F5578"/>
<path d="M85.0788 3.13574C86.6612 3.13574 87.905 3.68839 88.6012 4.60412C89.3042 5.56483 89.6636 6.74009 89.6203 7.93607C89.6176 8.40838 89.5806 8.87984 89.5095 9.34661H82.6673C82.8635 10.6318 84.0661 11.2102 85.7814 11.2102C86.8183 11.1655 87.843 10.9663 88.8228 10.619V12.6978C88.0337 13.1498 86.9123 13.3758 85.4586 13.3758C83.6325 13.3758 82.1957 12.8103 81.3444 11.8592C80.4781 10.8517 80.025 9.54547 80.0785 8.20918C80.069 4.75192 82.49 3.13574 85.0788 3.13574ZM87.1359 7.58585C87.1359 6.09177 86.3384 5.31742 85.0788 5.31742C83.6325 5.31742 82.6863 6.15603 82.5755 7.58585H87.1359Z" fill="#4F5578"/>
<path d="M91.7788 13.0482V3.44435H94.0954V5.02518C94.6809 3.73995 95.7949 3.11662 97.4438 3.11662C97.8887 3.09364 98.3335 3.16267 98.7513 3.31953C99.1691 3.47639 99.5512 3.71781 99.8743 4.02913C100.476 4.63961 100.783 5.52642 100.783 6.66385V13.0482H98.159V7.16188C98.159 5.7417 97.5451 5.26295 96.469 5.26295C96.0361 5.28374 95.6165 5.4212 95.2533 5.6612C94.8901 5.9012 94.5964 6.23508 94.4024 6.6285V13.0546L91.7788 13.0482Z" fill="#4F5578"/>
<path d="M103.172 1.60666L105.777 0.729492V3.43169H108.679V5.4752H105.777V9.77108C105.777 10.5711 106.204 10.8924 107.103 10.8924C107.572 10.9094 108.036 10.7985 108.448 10.5711V12.7817C107.762 13.1515 106.99 13.3279 106.214 13.2926C104.182 13.2926 103.172 12.2644 103.172 10.2241V1.60666Z" fill="#4F5578"/>
<path d="M114.822 3.13562V0.867188H124.883V3.13562H121.085V13.0479H118.616V3.13562H114.822Z" fill="#4F5578"/>
<path d="M129.667 3.13574C131.25 3.13574 132.494 3.68839 133.19 4.60412C133.893 5.56483 134.252 6.74009 134.209 7.93607C134.206 8.40838 134.169 8.87984 134.098 9.34661H127.256C127.449 10.6318 128.655 11.2102 130.37 11.2102C131.407 11.1655 132.432 10.9663 133.411 10.619V12.6978C132.622 13.1498 131.501 13.3758 130.047 13.3758C128.221 13.3758 126.784 12.8103 125.933 11.8592C125.065 10.8526 124.612 9.54572 124.667 8.20918C124.661 4.75192 127.079 3.13574 129.667 3.13574ZM131.725 7.58585C131.725 6.09177 130.927 5.31742 129.667 5.31742C128.221 5.31742 127.275 6.15603 127.164 7.58585H131.725Z" fill="#4F5578"/>
<path d="M137.232 4.53688C138.181 3.57296 139.447 3.1167 141.029 3.1167C141.508 3.12217 141.985 3.16622 142.457 3.24844C142.908 3.32101 143.347 3.4539 143.764 3.64364V5.95063C143.42 5.74203 143.043 5.59529 142.65 5.51686C142.187 5.4127 141.715 5.35884 141.241 5.35621C139.469 5.35621 138.507 6.35548 138.507 8.2287C138.463 8.99581 138.705 9.75173 139.184 10.3461C139.404 10.5999 139.677 10.8007 139.983 10.9341C140.289 11.0675 140.621 11.13 140.953 11.1172C141.968 11.1629 142.977 10.9322 143.874 10.4489V12.7559C143.425 12.9776 142.948 13.1354 142.457 13.225C141.955 13.3231 141.445 13.3737 140.934 13.376C138.086 13.4339 135.798 11.4289 135.826 8.3026C135.824 6.74104 136.293 5.4858 137.232 4.53688Z" fill="#4F5578"/>
<path d="M145.799 13.0483V0H148.407V4.75213C148.718 4.22587 149.165 3.79562 149.699 3.50752C150.233 3.21941 150.835 3.0843 151.438 3.11668C151.885 3.09333 152.332 3.1631 152.751 3.3217C153.17 3.48029 153.553 3.72435 153.875 4.03883C154.47 4.64932 154.765 5.53612 154.765 6.68319V13.0483H152.16V7.16194C152.16 5.76104 151.527 5.28229 150.454 5.28229C150.022 5.29587 149.603 5.43027 149.241 5.67066C148.88 5.91106 148.591 6.24811 148.407 6.64463V13.0483H145.799Z" fill="#4F5578"/>
<path d="M157.306 13.0482V3.44435H159.625V5.02518C160.208 3.73995 161.322 3.11662 162.971 3.11662C163.416 3.09364 163.86 3.16267 164.278 3.31953C164.696 3.47639 165.078 3.71781 165.401 4.02913C166.003 4.63961 166.31 5.52642 166.31 6.66385V13.0482H163.686V7.16188C163.686 5.7417 163.072 5.26295 161.999 5.26295C161.566 5.28384 161.146 5.42131 160.782 5.66127C160.418 5.90122 160.124 6.23504 159.929 6.6285V13.0546L157.306 13.0482Z" fill="#4F5578"/>
<path d="M173.013 3.1167C174.709 3.1167 176.092 3.71754 176.915 4.65897C177.748 5.64031 178.199 6.8977 178.181 8.19335C178.235 11.0851 176.206 13.4082 173.016 13.3793C171.338 13.3793 169.965 12.7688 169.139 11.8273C168.3 10.8494 167.849 9.58973 167.873 8.29296C167.857 5.35621 169.794 3.1167 173.013 3.1167ZM173.013 11.1751C174.886 11.1751 175.497 9.66815 175.497 8.32188C175.497 7.23907 175.199 6.3362 174.43 5.75142C174.019 5.45038 173.52 5.29771 173.013 5.31765C171.149 5.31765 170.566 6.81495 170.566 8.15158C170.582 9.71314 171.269 11.1751 173.013 11.1751Z" fill="#4F5578"/>
<path d="M179.782 13.0483V0H182.425V13.0483H179.782Z" fill="#4F5578"/>
<path d="M189.118 3.1167C190.815 3.1167 192.198 3.71754 193.024 4.65897C193.856 5.64092 194.306 6.89791 194.289 8.19335C194.346 11.0851 192.315 13.4082 189.125 13.3793C187.447 13.3793 186.074 12.7688 185.251 11.8273C184.411 10.8501 183.959 9.58993 183.985 8.29296C183.963 5.35621 185.903 3.1167 189.118 3.1167ZM189.118 11.1751C190.992 11.1751 191.603 9.66815 191.603 8.32188C191.603 7.23907 191.308 6.3362 190.536 5.75142C190.124 5.45038 189.625 5.29771 189.118 5.31765C187.254 5.31765 186.672 6.81495 186.672 8.15158C186.672 9.71314 187.374 11.1751 189.118 11.1751Z" fill="#4F5578"/>
<path d="M197.761 3.92642C198.504 3.40017 199.387 3.11759 200.293 3.11673C200.876 3.09169 201.456 3.20331 201.99 3.44291C202.523 3.68251 202.995 4.04366 203.369 4.49835L203.527 3.43482H205.711V11.5221C205.686 15.2589 203.246 16.7851 200.435 16.7851C199.206 16.8328 197.987 16.5466 196.903 15.9562V13.6203C197.902 14.1867 199.023 14.4945 200.166 14.5167C202.17 14.5167 203.173 13.7713 203.173 12.2933V12.0491C202.765 12.4419 202.285 12.749 201.759 12.9525C201.234 13.156 200.674 13.2519 200.113 13.2347C197.283 13.2347 195.726 10.9855 195.726 8.20945C195.72 6.16593 196.593 4.7072 197.761 3.92642ZM198.948 10.3076C199.144 10.5809 199.405 10.8 199.706 10.9448C200.008 11.0896 200.34 11.1555 200.673 11.1366C201.176 11.1639 201.676 11.0489 202.119 10.8044C202.562 10.5599 202.929 10.1955 203.179 9.75172V6.31695C202.538 5.66808 201.673 5.29719 200.768 5.28234C199.185 5.28234 198.366 6.40049 198.366 8.28335C198.337 9.00451 198.542 9.71536 198.948 10.3076Z" fill="#4F5578"/>
<path d="M207.012 3.44434H209.899L212.114 9.29213L214.256 3.44434H217.01L211.149 16.7079H208.496L210.965 12.0682L207.012 3.44434Z" fill="#4F5578"/>
<g opacity="0.85">
<path opacity="0.85" d="M2.9149 28.3812H4.23145V32.3397C4.23145 32.9181 4.34854 33.3036 4.5859 33.5446C4.86882 33.7826 5.2326 33.898 5.59864 33.8659C5.96718 33.8545 6.32577 33.7418 6.6362 33.5398C6.94663 33.3378 7.19727 33.054 7.36142 32.7188V28.3812H8.67797V34.7816H7.64942V33.6763C7.35429 34.1783 6.90186 34.5652 6.36451 34.7752C5.92796 34.9329 5.46692 35.0091 5.00366 35.0001C4.72258 35.0141 4.44176 34.9679 4.17947 34.8644C3.91719 34.7608 3.67933 34.6024 3.48139 34.3993C3.07772 33.9254 2.8752 33.3085 2.91806 32.6835L2.9149 28.3812Z" fill="#4F5578"/>
<path opacity="0.85" d="M10.3521 34.7816V28.3812H11.3934V29.6664C11.6262 29.1999 11.987 28.8117 12.4324 28.5489C12.8777 28.286 13.3885 28.1597 13.903 28.1852C14.0708 28.1852 14.2005 28.1852 14.2796 28.1852V29.5539C14.048 29.4928 13.81 29.4604 13.5707 29.4575C12.6973 29.4575 12.0738 29.8977 11.6719 30.7813V34.7559L10.3521 34.7816Z" fill="#4F5578"/>
<path opacity="0.85" d="M15.0992 26.0838H16.3904V28.9755C17.0174 28.4259 17.8255 28.1368 18.6533 28.1658C20.3085 28.1658 21.5459 29.284 21.5396 31.4849C21.5396 33.9269 19.8464 35.0193 17.8304 35.0193C16.8759 35.0055 15.9389 34.7575 15.0992 34.2964V26.0838ZM16.3904 33.4931C16.8719 33.6942 17.3859 33.8031 17.9064 33.8144C18.5038 33.8362 19.0876 33.6299 19.5426 33.2361C19.7663 33.0119 19.9388 32.7406 20.0482 32.4414C20.1575 32.1422 20.201 31.8223 20.1755 31.5042C20.1755 29.9684 19.2736 29.3579 18.34 29.3579C17.6136 29.353 16.9128 29.63 16.381 30.1322L16.3904 33.4931Z" fill="#4F5578"/>
<path opacity="0.85" d="M23.2897 31.1668C23.8355 30.829 24.4675 30.6624 25.1063 30.6881C25.4097 30.6951 25.7117 30.7317 26.0083 30.7973C26.3398 30.8632 26.665 30.9589 26.9798 31.0833V30.5017C26.9798 29.6984 26.3722 29.2968 25.1664 29.2968C24.4777 29.2754 23.7934 29.415 23.1663 29.7049V28.5482C23.8571 28.297 24.5846 28.1656 25.3183 28.1594C25.9052 28.1348 26.4906 28.2355 27.0368 28.455C27.279 28.5662 27.4981 28.7233 27.6824 28.9177C28.1 29.4279 28.3105 30.0805 28.2711 30.7427V34.7912H27.3944L27.2457 33.7855C26.9602 34.1665 26.587 34.4706 26.1588 34.6711C25.7307 34.8717 25.2606 34.9625 24.7898 34.9357C24.2298 34.9358 23.6844 34.7546 23.2327 34.4184C22.9981 34.2336 22.8094 33.9954 22.6819 33.7231C22.5544 33.4508 22.4916 33.1519 22.4985 32.8505C22.4765 32.5244 22.5378 32.1982 22.6764 31.9032C22.815 31.6083 23.0263 31.3546 23.2897 31.1668ZM25.1886 33.9011C25.5491 33.8985 25.9006 33.7866 26.1981 33.5798C26.5291 33.3595 26.801 33.0592 26.9893 32.7059V32.1789C26.4703 31.8475 25.8682 31.6746 25.255 31.6809C24.3056 31.6809 23.8499 32.0183 23.8499 32.6962C23.8499 33.4931 24.2961 33.8947 25.1791 33.8947L25.1886 33.9011Z" fill="#4F5578"/>
<path opacity="0.85" d="M29.9579 34.7814V28.381H30.9833V29.5088C31.2233 29.0869 31.5712 28.7388 31.9902 28.5012C32.4091 28.2637 32.8835 28.1455 33.3632 28.1593C34.6291 28.1593 35.7811 28.8565 35.7811 30.4631V34.7814H34.4645V30.8197C34.4645 29.7658 33.8949 29.2774 33.0974 29.2774C32.7045 29.2714 32.3192 29.3877 31.9933 29.6105C31.6674 29.8334 31.4166 30.1522 31.2744 30.5241V34.7686L29.9579 34.7814Z" fill="#4F5578"/>
<path opacity="0.85" d="M41.041 34.7816V28.6767C41.041 27.3208 41.4746 26.6332 42.0664 26.2926C42.5354 26.0596 43.0543 25.9492 43.576 25.9713C43.9237 25.9822 44.2703 26.0144 44.6141 26.0677V27.1152C44.3163 27.0313 44.0085 26.9891 43.6995 26.9899C43.0665 26.9899 42.3576 27.1698 42.3576 28.3651H44.2818V29.3804H42.3576V34.7655L41.041 34.7816Z" fill="#4F5578"/>
<path opacity="0.85" d="M45.5731 28.3812H46.8897V32.3397C46.8897 32.9181 47.0068 33.3197 47.241 33.5446C47.5252 33.7825 47.8899 33.8978 48.2569 33.8659C48.6251 33.8546 48.9833 33.7419 49.2932 33.5398C49.6031 33.3378 49.8532 33.054 50.0165 32.7188V28.3812H51.3331V34.7816H50.3077V33.6763C50.0125 34.1783 49.5601 34.5652 49.0228 34.7752C48.5861 34.9323 48.1251 35.0085 47.6619 35.0001C47.3803 35.0146 47.0989 34.9686 46.836 34.865C46.5732 34.7615 46.3348 34.6028 46.1365 34.3993C45.9358 34.1651 45.7828 33.8929 45.6861 33.5985C45.5894 33.304 45.5511 32.9931 45.5731 32.6835V28.3812Z" fill="#4F5578"/>
<path opacity="0.85" d="M52.9344 27.1635L54.251 26.5787V28.3812H56.3144V29.3965H54.251V32.7928C54.251 33.4739 54.5674 33.8145 55.1719 33.8145C55.3504 33.8086 55.5276 33.7828 55.7004 33.7374C55.8588 33.7042 56.0128 33.6524 56.1593 33.5832V34.711C55.7423 34.8846 55.293 34.9635 54.8428 34.9423C53.6117 34.9423 52.9439 34.2997 52.9439 32.7863L52.9344 27.1635Z" fill="#4F5578"/>
<path opacity="0.85" d="M57.5012 28.3812H58.8178V32.3397C58.8178 32.9181 58.9349 33.3036 59.1722 33.5446C59.4551 33.7826 59.8189 33.898 60.185 33.8659C60.5535 33.8545 60.9121 33.7418 61.2225 33.5398C61.533 33.3378 61.7836 33.054 61.9477 32.7188V28.3812H63.2643V34.7816H62.2357V33.6763C61.9406 34.1783 61.4882 34.5652 60.9508 34.7752C60.5143 34.9329 60.0532 35.0091 59.59 35.0001C59.3084 35.0146 59.027 34.9686 58.7641 34.865C58.5012 34.7615 58.2629 34.6028 58.0646 34.3993C57.6609 33.9254 57.4584 33.3085 57.5012 32.6835V28.3812Z" fill="#4F5578"/>
<path opacity="0.85" d="M64.9384 34.7816V28.3812H65.9637V29.6664C66.1966 29.1999 66.5574 28.8117 67.0028 28.5489C67.4481 28.286 67.9589 28.1597 68.4734 28.1852C68.6412 28.1852 68.7709 28.1852 68.85 28.1852V29.5539C68.6184 29.4928 68.3804 29.4604 68.1411 29.4575C67.2676 29.4575 66.6442 29.8977 66.2422 30.7813V34.7559L64.9384 34.7816Z" fill="#4F5578"/>
<path opacity="0.85" d="M70.2045 29.0399C70.8273 28.4711 71.636 28.1574 72.4737 28.1595C73.5117 28.1595 74.3219 28.5065 74.7903 29.0817C75.2701 29.6959 75.5182 30.4639 75.4897 31.2473C75.4897 31.4786 75.4708 31.7871 75.4328 32.1694H70.5748C70.6062 32.451 70.7025 32.7211 70.8559 32.9578C71.0093 33.1945 71.2155 33.3911 71.4578 33.5318C71.9266 33.7821 72.4505 33.9071 72.9801 33.8949C73.6682 33.9053 74.3508 33.7685 74.9834 33.4932V34.5857C74.6616 34.7415 74.3195 34.8497 73.9675 34.907C73.5658 34.9751 73.1594 35.0105 72.7522 35.013C71.5591 35.013 70.6128 34.6371 70.0495 34.0041C69.4754 33.3299 69.1755 32.4591 69.2108 31.5686C69.1931 31.1 69.2725 30.6328 69.4436 30.1973C69.6148 29.7617 69.874 29.3675 70.2045 29.0399ZM74.1922 31.167C74.2072 30.9135 74.1722 30.6595 74.089 30.42C74.0058 30.1805 73.8763 29.9603 73.708 29.7725C73.5478 29.606 73.3555 29.475 73.1431 29.3876C72.9307 29.3003 72.7028 29.2584 72.4737 29.2648C71.328 29.2648 70.6191 29.9749 70.5495 31.1541L74.1922 31.167Z" fill="#4F5578"/>
</g>
</g>
<defs>
<clipPath id="clip0">
<rect width="217" height="35" fill="white"/>
</clipPath>
</defs>
</svg>
